<svg width="28" height="28" viewBox="0 0 28 28" fill="none" xmlns="http://www.w3.org/2000/svg">
<rect width="28" height="28" rx="14" fill="#1565C0"/>
<g clip-path="url(#clip0_118_7648)">
<path d="M9.91212 16.3887C9.20901 15.7392 8.67271 14.9299 8.34859 14.0293C8.02448 13.1287 7.9221 12.1632 8.05012 11.2147C8.17669 10.2528 8.5346 9.33605 9.09317 8.54288C9.65174 7.7497 10.3943 7.10379 11.2572 6.66051C12.1202 6.21724 13.0777 5.98981 14.0478 5.99772C15.0179 6.00564 15.9716 6.24866 16.8271 6.70596C17.6827 7.16326 18.4146 7.8212 18.9602 8.62339C19.5057 9.42557 19.8486 10.3481 19.9595 11.3118C20.0704 12.2756 19.9459 13.2519 19.5967 14.157C19.2476 15.0621 18.6842 15.869 17.9548 16.5087C17.4851 16.9125 17.1204 17.4242 16.8921 18H14.6668V13.2107C15.0554 13.0733 15.3921 12.8192 15.6307 12.4831C15.8694 12.1471 15.9984 11.7455 16.0001 11.3333C16.0001 11.1565 15.9299 10.987 15.8049 10.8619C15.6798 10.7369 15.5103 10.6667 15.3334 10.6667C15.1566 10.6667 14.9871 10.7369 14.862 10.8619C14.737 10.987 14.6668 11.1565 14.6668 11.3333C14.6668 11.5101 14.5965 11.6797 14.4715 11.8047C14.3465 11.9298 14.1769 12 14.0001 12C13.8233 12 13.6537 11.9298 13.5287 11.8047C13.4037 11.6797 13.3334 11.5101 13.3334 11.3333C13.3334 11.1565 13.2632 10.987 13.1382 10.8619C13.0132 10.7369 12.8436 10.6667 12.6668 10.6667C12.49 10.6667 12.3204 10.7369 12.1954 10.8619C12.0704 10.987 12.0001 11.1565 12.0001 11.3333C12.0018 11.7455 12.1308 12.1471 12.3695 12.4831C12.6082 12.8192 12.9448 13.0733 13.3334 13.2107V18H11.0421C10.7872 17.387 10.4016 16.8371 9.91212 16.3887ZM11.3334 19.3333V19.54C11.3342 20.1922 11.5936 20.8175 12.0547 21.2787C12.5159 21.7399 13.1412 21.9993 13.7934 22H14.2068C14.859 21.9993 15.4843 21.7399 15.9455 21.2787C16.4067 20.8175 16.6661 20.1922 16.6668 19.54V19.3333H11.3334Z" fill="white"/>
</g>
<defs>
<clipPath id="clip0_118_7648">
<rect width="16" height="16" fill="white" transform="translate(6 6)"/>
</clipPath>
</defs>
</svg>
