<svg width="28" height="28" viewBox="0 0 28 28" fill="none" xmlns="http://www.w3.org/2000/svg">
<rect width="28" height="28" rx="14" fill="#2E7D32"/>
<g clip-path="url(#clip0_118_7663)">
<path d="M18.3873 7.42666L14.2106 6.03399C14.0738 5.98845 13.926 5.98845 13.7893 6.03399L9.61259 7.42666C8.94852 7.64725 8.37086 8.0715 7.96168 8.63913C7.5525 9.20677 7.33261 9.88892 7.33325 10.5887V14C7.33325 19.042 13.4666 21.8267 13.7293 21.9427C13.8145 21.9805 13.9067 22.0001 13.9999 22.0001C14.0932 22.0001 14.1854 21.9805 14.2706 21.9427C14.5333 21.8267 20.6666 19.042 20.6666 14V10.5887C20.6672 9.88892 20.4473 9.20677 20.0382 8.63913C19.629 8.0715 19.0513 7.64725 18.3873 7.42666ZM17.1453 12.478L14.2973 15.326C14.1807 15.4433 14.042 15.5363 13.8892 15.5996C13.7365 15.6629 13.5726 15.6952 13.4073 15.6947H13.3853C13.2165 15.6921 13.0501 15.6553 12.8959 15.5865C12.7418 15.5178 12.6032 15.4185 12.4886 15.2947L10.9513 13.6947C10.8847 13.6329 10.8314 13.5582 10.7948 13.4751C10.7581 13.392 10.7388 13.3023 10.738 13.2115C10.7373 13.1206 10.7551 13.0306 10.7904 12.9469C10.8257 12.8632 10.8777 12.7877 10.9432 12.7248C11.0088 12.6619 11.0865 12.6131 11.1716 12.5814C11.2567 12.5496 11.3473 12.5356 11.438 12.5401C11.5288 12.5447 11.6176 12.5677 11.6991 12.6078C11.7806 12.6479 11.853 12.7042 11.9119 12.7733L13.4079 14.3333L16.1999 11.5333C16.3257 11.4119 16.4941 11.3447 16.6689 11.3462C16.8437 11.3477 17.0109 11.4178 17.1345 11.5414C17.2581 11.6651 17.3282 11.8323 17.3297 12.0071C17.3312 12.1819 17.264 12.3503 17.1426 12.476L17.1453 12.478Z" fill="white"/>
</g>
<defs>
<clipPath id="clip0_118_7663">
<rect width="16" height="16" fill="white" transform="translate(6 6)"/>
</clipPath>
</defs>
</svg>
