<svg width="28" height="28" viewBox="0 0 28 28" fill="none" xmlns="http://www.w3.org/2000/svg">
<rect width="28" height="28" rx="14" fill="#212121"/>
<g clip-path="url(#clip0_118_7677)">
<path d="M18.3873 7.42667L14.2106 6.03401C14.0738 5.98846 13.926 5.98846 13.7893 6.03401L9.61192 7.42667C8.94798 7.64738 8.37047 8.07168 7.96141 8.6393C7.55236 9.20693 7.33256 9.88901 7.33325 10.5887V14C7.33325 19.042 13.4666 21.8267 13.7293 21.9427C13.8145 21.9805 13.9067 22.0001 13.9999 22.0001C14.0932 22.0001 14.1854 21.9805 14.2706 21.9427C14.5333 21.8267 20.6666 19.042 20.6666 14V10.5887C20.6672 9.88893 20.4473 9.20678 20.0382 8.63915C19.629 8.07151 19.0513 7.64726 18.3873 7.42667ZM13.9999 18.6667C13.8681 18.6667 13.7392 18.6276 13.6295 18.5543C13.5199 18.4811 13.4345 18.3769 13.384 18.2551C13.3335 18.1333 13.3203 17.9993 13.3461 17.8699C13.3718 17.7406 13.4353 17.6218 13.5285 17.5286C13.6218 17.4354 13.7405 17.3719 13.8699 17.3462C13.9992 17.3204 14.1332 17.3336 14.255 17.3841C14.3769 17.4345 14.481 17.52 14.5542 17.6296C14.6275 17.7393 14.6666 17.8682 14.6666 18C14.6666 18.1768 14.5963 18.3464 14.4713 18.4714C14.3463 18.5964 14.1767 18.6667 13.9999 18.6667ZM14.6666 15.3333C14.6666 15.5102 14.5963 15.6797 14.4713 15.8047C14.3463 15.9298 14.1767 16 13.9999 16C13.8231 16 13.6535 15.9298 13.5285 15.8047C13.4035 15.6797 13.3333 15.5102 13.3333 15.3333V10C13.3333 9.8232 13.4035 9.65363 13.5285 9.5286C13.6535 9.40358 13.8231 9.33334 13.9999 9.33334C14.1767 9.33334 14.3463 9.40358 14.4713 9.5286C14.5963 9.65363 14.6666 9.8232 14.6666 10V15.3333Z" fill="white"/>
</g>
<defs>
<clipPath id="clip0_118_7677">
<rect width="16" height="16" fill="white" transform="translate(6 6)"/>
</clipPath>
</defs>
</svg>
