<svg xmlns="http://www.w3.org/2000/svg" width="80" height="80" viewBox="0 0 80 80">
  <rect width="80" height="80" fill="#f5f5f5"/>
  <g transform="translate(20, 20)">
    <path d="M20 0C8.954 0 0 8.954 0 20s8.954 20 20 20 20-8.954 20-20S31.046 0 20 0zm0 36c-8.837 0-16-7.163-16-16S11.163 4 20 4s16 7.163 16 16-7.163 16-16 16z" fill="#d1d5db"/>
    <circle cx="20" cy="16" r="5" fill="#d1d5db"/>
    <path d="M20 24c-5.523 0-10 3.582-10 8h20c0-4.418-4.477-8-10-8z" fill="#d1d5db"/>
  </g>
  <text x="40" y="75" font-family="Arial, sans-serif" font-size="8" fill="#9ca3af" text-anchor="middle">Sin foto</text>
</svg>
