<svg width="28" height="28" viewBox="0 0 28 28" fill="none" xmlns="http://www.w3.org/2000/svg">
<rect width="28" height="28" rx="14" fill="#C62828"/>
<g clip-path="url(#clip0_118_7655)">
<path d="M14 6C9.58172 6 6 9.58172 6 14C6 18.4183 9.58172 22 14 22C18.4183 22 22 18.4183 22 14C21.9952 9.58369 18.4163 6.00478 14 6ZM16.6667 15.7247C16.9376 15.974 16.9551 16.3958 16.7057 16.6667C16.4564 16.9376 16.0346 16.9551 15.7637 16.7057C15.7502 16.6933 15.7372 16.6802 15.7247 16.6667L14 14.9427L12.276 16.6667C12.0112 16.9224 11.5891 16.9151 11.3333 16.6503C11.0838 16.3919 11.0838 15.9823 11.3333 15.724L13.0573 14L11.3333 12.276C11.0776 12.0112 11.0849 11.5891 11.3498 11.3333C11.6081 11.0838 12.0177 11.0838 12.276 11.3333L14 13.0573L15.7247 11.3333C15.974 11.0624 16.3958 11.0449 16.6667 11.2943C16.9376 11.5436 16.9551 11.9654 16.7057 12.2363C16.6933 12.2498 16.6802 12.2628 16.6667 12.2753L14.9427 14L16.6667 15.7247Z" fill="white"/>
</g>
<defs>
<clipPath id="clip0_118_7655">
<rect width="16" height="16" fill="white" transform="translate(6 6)"/>
</clipPath>
</defs>
</svg>
